<?xml version="1.0" encoding="utf-8"?>
<!-- Generator: Adobe Adobe Illustrator 24.2.0, SVG Export Plug-In . SVG Version: 6.00 Build 0)  -->
<svg version="1.1" id="Layer_1" xmlns="http://www.w3.org/2000/svg" xmlns:xlink="http://www.w3.org/1999/xlink" x="0px" y="0px"
	 viewBox="0 0 1080 1080" style="enable-background:new 0 0 1080 1080;" xml:space="preserve">
<style type="text/css">
	.st0{fill:#5240AB;}
	.st1{fill:url(#SVGID_1_);}
	.st2{fill:url(#SVGID_2_);}
	.st3{fill:url(#SVGID_3_);}
	.st4{fill:url(#SVGID_4_);}
	.st5{fill:url(#SVGID_5_);}
	.st6{fill:url(#SVGID_6_);}
	.st7{fill:url(#SVGID_7_);}
	.st8{fill:url(#SVGID_8_);}
	.st9{fill:url(#SVGID_9_);}
	.st10{fill:url(#SVGID_10_);}
	.st11{fill:url(#SVGID_11_);}
	.st12{fill:url(#SVGID_12_);}
	.st13{fill:url(#SVGID_13_);}
	.st14{fill:url(#SVGID_14_);}
	.st15{fill:url(#SVGID_15_);}
	.st16{fill:url(#SVGID_16_);}
	.st17{fill:url(#SVGID_17_);}
	.st18{fill:url(#SVGID_18_);}
	.st19{fill:url(#SVGID_19_);}
	.st20{fill:url(#SVGID_20_);}
	.st21{fill:url(#SVGID_21_);}
	.st22{fill:url(#SVGID_22_);}
	.st23{opacity:0.22;fill:url(#SVGID_23_);}
	.st24{opacity:0.5;fill:url(#SVGID_24_);}
	.st25{opacity:0.3;fill:url(#SVGID_25_);}
	.st26{opacity:0.3;fill:url(#SVGID_26_);}
	.st27{opacity:0.3;fill:url(#SVGID_27_);}
	.st28{opacity:0.3;fill:url(#SVGID_28_);}
	.st29{opacity:0.2;fill:url(#SVGID_29_);}
	.st30{opacity:0.2;fill:url(#SVGID_30_);}
	.st31{opacity:0.5;fill:url(#SVGID_31_);}
	.st32{opacity:0.5;}
	.st33{opacity:0.5;fill:url(#SVGID_32_);}
	.st34{opacity:0.7;fill:url(#SVGID_33_);}
	.st35{opacity:0.7;fill:url(#SVGID_34_);}
	.st36{opacity:0.7;fill:url(#SVGID_35_);}
	.st37{opacity:0.5;fill:url(#SVGID_36_);}
	.st38{opacity:0.5;fill:url(#SVGID_37_);}
	.st39{opacity:0.7;fill:url(#Custom_Color_layer_1_);}
	.st40{fill:#0088FF;}
	.st41{fill:#32ADFF;}
	.st42{fill:#79B5E8;}
	.st43{fill:#7EAAD2;}
	.st44{fill:#4D789D;}
	.st45{fill:#A25A5A;}
	.st46{fill:#90E8B0;}
	.st47{fill:#FFFFFF;}
	.st48{fill:#23292E;}
	.st49{fill:none;stroke:#32ADFF;stroke-width:14;stroke-linecap:round;stroke-miterlimit:10;}
	.st50{fill:none;stroke:#32ADFF;stroke-width:7;stroke-linecap:round;stroke-miterlimit:10;}
	.st51{fill:url(#SVGID_38_);}
	.st52{fill:url(#SVGID_39_);}
	.st53{fill:url(#SVGID_40_);}
	.st54{fill:url(#SVGID_41_);}
	.st55{fill:url(#SVGID_42_);}
	.st56{fill:url(#SVGID_43_);}
	.st57{fill:#E8A685;}
	.st58{fill:#7EABD2;}
	.st59{fill:#557EA2;}
</style>
<g>
	<path class="st43" d="M183.46,592.97c-4.76,0-6.86-2.1-6.86-6.86v-22.29c0-4.76,2.1-6.86,6.86-6.86h51.25
		c3.24,0,4.95-2.48,4.95-5.53c0-4.38-1.71-6.1-4.95-6.48l-28.58-4c-17.91-2.67-29.53-10.29-29.53-31.63v-20.01
		c0-21.72,14.67-33.53,39.44-33.53h53.35c4.76,0,6.86,2.1,6.86,6.86v22.67c0,4.76-2.1,6.86-6.86,6.86H225
		c-3.24,0-5.14,2.29-5.14,5.72s1.91,5.72,5.14,6.1l28.39,3.81c17.91,2.67,29.72,10.29,29.72,31.63v20.01
		c0,21.72-14.86,33.53-39.44,33.53H183.46z"/>
	<path class="st43" d="M310.74,592.97c-4.76,0-6.86-2.1-6.86-6.86V462.64c0-4.76,2.1-6.86,6.86-6.86h29.53
		c4.76,0,6.86,2.1,6.86,6.86v43.82h7.62l19.62-44.39c1.91-4.57,4.57-6.29,9.53-6.29h29.34c4.38,0,5.91,2.29,4.19,6.29L398,506.46
		c14.29,0.76,23.44,10.67,23.44,25.91v53.73c0,4.76-2.1,6.86-6.86,6.86h-29.34c-4.76,0-6.86-2.1-6.86-6.86v-37.15
		c0-4.19-2.1-6.48-6.1-6.48h-25.15v43.63c0,4.76-2.1,6.86-6.86,6.86H310.74z"/>
	<path class="st43" d="M480.89,592.97c-4.95,0-6.86-2.1-6.86-6.86v-24.39l-29.15-39.06c-5.91-7.81-7.24-11.62-7.24-23.44v-36.58
		c0-4.76,2.1-6.86,6.86-6.86h29.34c4.76,0,6.86,2.1,6.86,6.86v31.25c0,2.67,0,5.33,1.71,8l8.76,13.72c1.33,2.29,2.48,3.24,4.57,3.24
		h1.91c2.1,0,3.24-0.95,4.57-3.24l8.76-13.72c1.71-2.67,1.71-5.33,1.71-8v-31.25c0-4.76,2.1-6.86,6.86-6.86h28.39
		c4.76,0,6.86,2.1,6.86,6.86v36.58c0,11.81-1.52,15.62-7.24,23.44l-28.96,39.25v24.2c0,4.76-2.1,6.86-6.86,6.86H480.89z"/>
	<path class="st43" d="M583.39,592.97c-4.76,0-6.86-2.1-6.86-6.86V462.64c0-4.76,2.1-6.86,6.86-6.86h84.98
		c4.76,0,6.86,2.1,6.86,6.86v22.67c0,4.76-2.1,6.86-6.86,6.86h-48.59v19.82h33.15c4.76,0,6.86,2.1,6.86,6.86v22.87
		c0,4.76-2.1,6.86-6.86,6.86h-33.15v37.54c0,4.76-2.1,6.86-6.86,6.86H583.39z"/>
	<path class="st43" d="M691.24,586.11v-22.67c0-4.76,2.1-6.86,6.86-6.86h18.86v-64.02H698.1c-4.76,0-6.86-2.1-6.86-6.86v-23.05
		c0-4.76,2.1-6.86,6.86-6.86h81.17c4.76,0,6.86,2.1,6.86,6.86v23.05c0,4.76-2.1,6.86-6.86,6.86h-18.48v64.02h18.48
		c4.76,0,6.86,2.1,6.86,6.86v22.67c0,4.76-2.1,6.86-6.86,6.86H698.1C693.33,592.97,691.24,590.87,691.24,586.11z"/>
	<path class="st43" d="M843.48,592.97c-4.76,0-6.86-2.1-6.86-6.86v-93.55h-28.01c-4.76,0-6.86-2.1-6.86-6.86v-23.05
		c0-4.76,2.1-6.86,6.86-6.86h100.6c4.76,0,6.86,2.1,6.86,6.86v23.05c0,4.76-2.1,6.86-6.86,6.86H881.2v93.55
		c0,4.76-2.1,6.86-6.86,6.86H843.48z"/>
</g>
<g>
	<path class="st45" d="M177.08,584.36c-4.76,0-6.86-2.1-6.86-6.86v-22.29c0-4.76,2.1-6.86,6.86-6.86h51.25
		c3.24,0,4.95-2.48,4.95-5.53c0-4.38-1.71-6.1-4.95-6.48l-28.58-4c-17.91-2.67-29.53-10.29-29.53-31.63v-20.01
		c0-21.72,14.67-33.53,39.44-33.53h53.35c4.76,0,6.86,2.1,6.86,6.86v22.67c0,4.76-2.1,6.86-6.86,6.86h-44.4
		c-3.24,0-5.14,2.29-5.14,5.72s1.91,5.72,5.14,6.1l28.39,3.81c17.91,2.67,29.72,10.29,29.72,31.63v20.01
		c0,21.72-14.86,33.53-39.44,33.53H177.08z"/>
	<path class="st45" d="M304.35,584.36c-4.76,0-6.86-2.1-6.86-6.86V454.04c0-4.76,2.1-6.86,6.86-6.86h29.53
		c4.76,0,6.86,2.1,6.86,6.86v43.82h7.62l19.62-44.39c1.91-4.57,4.57-6.29,9.53-6.29h29.34c4.38,0,5.91,2.29,4.19,6.29l-19.43,44.39
		c14.29,0.76,23.44,10.67,23.44,25.91v53.73c0,4.76-2.1,6.86-6.86,6.86h-29.34c-4.76,0-6.86-2.1-6.86-6.86v-37.15
		c0-4.19-2.1-6.48-6.1-6.48h-25.15v43.63c0,4.76-2.1,6.86-6.86,6.86H304.35z"/>
	<path class="st45" d="M474.5,584.36c-4.95,0-6.86-2.1-6.86-6.86v-24.39l-29.15-39.06c-5.91-7.81-7.24-11.62-7.24-23.44v-36.58
		c0-4.76,2.1-6.86,6.86-6.86h29.34c4.76,0,6.86,2.1,6.86,6.86v31.25c0,2.67,0,5.33,1.71,8l8.76,13.72c1.33,2.29,2.48,3.24,4.57,3.24
		h1.91c2.1,0,3.24-0.95,4.57-3.24l8.76-13.72c1.71-2.67,1.71-5.33,1.71-8v-31.25c0-4.76,2.1-6.86,6.86-6.86h28.39
		c4.76,0,6.86,2.1,6.86,6.86v36.58c0,11.81-1.52,15.62-7.24,23.44l-28.96,39.25v24.2c0,4.76-2.1,6.86-6.86,6.86H474.5z"/>
	<path class="st45" d="M577.01,584.36c-4.76,0-6.86-2.1-6.86-6.86V454.04c0-4.76,2.1-6.86,6.86-6.86h84.98
		c4.76,0,6.86,2.1,6.86,6.86v22.67c0,4.76-2.1,6.86-6.86,6.86H613.4v19.82h33.15c4.76,0,6.86,2.1,6.86,6.86v22.87
		c0,4.76-2.1,6.86-6.86,6.86H613.4v37.54c0,4.76-2.1,6.86-6.86,6.86H577.01z"/>
	<path class="st45" d="M684.85,577.5v-22.67c0-4.76,2.1-6.86,6.86-6.86h18.86v-64.02h-18.86c-4.76,0-6.86-2.1-6.86-6.86v-23.05
		c0-4.76,2.1-6.86,6.86-6.86h81.17c4.76,0,6.86,2.1,6.86,6.86v23.05c0,4.76-2.1,6.86-6.86,6.86H754.4v64.02h18.48
		c4.76,0,6.86,2.1,6.86,6.86v22.67c0,4.76-2.1,6.86-6.86,6.86h-81.17C686.95,584.36,684.85,582.27,684.85,577.5z"/>
	<path class="st45" d="M837.09,584.36c-4.76,0-6.86-2.1-6.86-6.86v-93.55h-28.01c-4.76,0-6.86-2.1-6.86-6.86v-23.05
		c0-4.76,2.1-6.86,6.86-6.86h100.6c4.76,0,6.86,2.1,6.86,6.86v23.05c0,4.76-2.1,6.86-6.86,6.86h-28.01v93.55
		c0,4.76-2.1,6.86-6.86,6.86H837.09z"/>
</g>
<g>
	<path class="st45" d="M487.85,747.25c-69.95-14.26-127.58-62.39-154.16-128.74c-1.77-4.41,0.38-9.41,4.78-11.18
		c4.41-1.77,9.41,0.38,11.18,4.78c24.42,60.97,77.37,105.18,141.63,118.29c45.34,9.24,92.56,2,132.96-20.41
		c39.97-22.16,70.94-57.73,87.21-100.16c1.7-4.43,6.67-6.65,11.11-4.95c4.43,1.7,6.65,6.67,4.95,11.11
		c-17.71,46.19-51.42,84.91-94.92,109.04C588.6,749.42,537.2,757.31,487.85,747.25z"/>
	<path class="st45" d="M482.93,771.36c-2.33-0.47-3.83-2.74-3.35-5.07c0.47-2.33,2.74-3.83,5.07-3.35
		c53.9,10.99,109.89,2.11,157.67-25.01c47.32-26.86,83.47-69.7,101.78-120.62c0.8-2.23,3.27-3.39,5.5-2.59
		c2.23,0.8,3.39,3.27,2.59,5.5c-19.01,52.85-56.52,97.31-105.63,125.19C596.98,773.55,538.86,782.77,482.93,771.36z"/>
</g>
<g>
	<path class="st45" d="M360.52,434.39c-1.08-0.22-2.14-0.66-3.11-1.32c-3.93-2.67-4.94-8.02-2.27-11.94
		c23.17-34.07,55.59-60.49,93.75-76.4c39.1-16.3,81.8-20.43,123.47-11.93c51.26,10.45,96.61,39.34,127.7,81.35
		c2.82,3.82,2.02,9.2-1.8,12.02c-3.82,2.82-9.2,2.02-12.02-1.8c-28.56-38.59-70.23-65.13-117.32-74.73
		c-38.29-7.81-77.5-4.02-113.42,10.95c-35.07,14.62-64.86,38.89-86.15,70.2C367.34,433.76,363.82,435.07,360.52,434.39z"/>
	<path class="st45" d="M331.01,423.99c-0.47-0.1-0.94-0.27-1.37-0.54c-2.03-1.23-2.68-3.87-1.45-5.9
		c24.99-41.19,61.56-73.4,105.74-93.15c45.15-20.18,94.72-25.61,143.34-15.69c2.33,0.47,3.83,2.74,3.35,5.07
		c-0.47,2.33-2.74,3.83-5.07,3.35c-46.85-9.55-94.61-4.32-138.11,15.12c-42.58,19.03-77.82,50.07-101.9,89.76
		C334.58,423.6,332.74,424.34,331.01,423.99z"/>
</g>
</svg>
