<?xml version="1.0" encoding="utf-8"?>
<!-- Generator: Adobe Adobe Illustrator 24.2.0, SVG Export Plug-In . SVG Version: 6.00 Build 0)  -->
<svg version="1.1" id="Layer_1" xmlns="http://www.w3.org/2000/svg" xmlns:xlink="http://www.w3.org/1999/xlink" x="0px" y="0px"
	 viewBox="0 0 1080 1080" style="enable-background:new 0 0 1080 1080;" xml:space="preserve">
<style type="text/css">
	.st0{fill:#5240AB;}
	.st1{fill:url(#SVGID_1_);}
	.st2{fill:url(#SVGID_2_);}
	.st3{fill:url(#SVGID_3_);}
	.st4{fill:url(#SVGID_4_);}
	.st5{fill:url(#SVGID_5_);}
	.st6{fill:url(#SVGID_6_);}
	.st7{fill:url(#SVGID_7_);}
	.st8{fill:url(#SVGID_8_);}
	.st9{fill:url(#SVGID_9_);}
	.st10{fill:url(#SVGID_10_);}
	.st11{fill:url(#SVGID_11_);}
	.st12{fill:url(#SVGID_12_);}
	.st13{fill:url(#SVGID_13_);}
	.st14{fill:url(#SVGID_14_);}
	.st15{fill:url(#SVGID_15_);}
	.st16{fill:url(#SVGID_16_);}
	.st17{fill:url(#SVGID_17_);}
	.st18{fill:url(#SVGID_18_);}
	.st19{fill:url(#SVGID_19_);}
	.st20{fill:url(#SVGID_20_);}
	.st21{fill:url(#SVGID_21_);}
	.st22{fill:url(#SVGID_22_);}
	.st23{opacity:0.22;fill:url(#SVGID_23_);}
	.st24{opacity:0.5;fill:url(#SVGID_24_);}
	.st25{opacity:0.3;fill:url(#SVGID_25_);}
	.st26{opacity:0.3;fill:url(#SVGID_26_);}
	.st27{opacity:0.3;fill:url(#SVGID_27_);}
	.st28{opacity:0.3;fill:url(#SVGID_28_);}
	.st29{opacity:0.2;fill:url(#SVGID_29_);}
	.st30{opacity:0.2;fill:url(#SVGID_30_);}
	.st31{opacity:0.5;fill:url(#SVGID_31_);}
	.st32{opacity:0.5;}
	.st33{opacity:0.5;fill:url(#SVGID_32_);}
	.st34{opacity:0.7;fill:url(#SVGID_33_);}
	.st35{opacity:0.7;fill:url(#SVGID_34_);}
	.st36{opacity:0.7;fill:url(#SVGID_35_);}
	.st37{opacity:0.5;fill:url(#SVGID_36_);}
	.st38{opacity:0.5;fill:url(#SVGID_37_);}
	.st39{opacity:0.7;fill:url(#Custom_Color_layer_1_);}
	.st40{fill:#0088FF;}
	.st41{fill:#32ADFF;}
	.st42{fill:#79B5E8;}
	.st43{fill:#7EAAD2;}
	.st44{fill:#4D789D;}
	.st45{fill:#A25A5A;}
	.st46{fill:#90E8B0;}
	.st47{fill:#FFFFFF;}
	.st48{fill:#23292E;}
	.st49{fill:none;stroke:#32ADFF;stroke-width:14;stroke-linecap:round;stroke-miterlimit:10;}
	.st50{fill:none;stroke:#32ADFF;stroke-width:7;stroke-linecap:round;stroke-miterlimit:10;}
	.st51{fill:url(#SVGID_38_);}
	.st52{fill:url(#SVGID_39_);}
	.st53{fill:url(#SVGID_40_);}
	.st54{fill:url(#SVGID_41_);}
	.st55{fill:url(#SVGID_42_);}
	.st56{fill:url(#SVGID_43_);}
	.st57{fill:#E8A685;}
	.st58{fill:#7EABD2;}
	.st59{fill:#557EA2;}
</style>
<g>
	<path class="st44" d="M188.58,591.44c-4.62,0-6.66-2.04-6.66-6.66v-21.65c0-4.62,2.04-6.66,6.66-6.66h49.77
		c3.15,0,4.81-2.41,4.81-5.37c0-4.25-1.67-5.92-4.81-6.29l-27.75-3.89c-17.39-2.59-28.68-9.99-28.68-30.71v-19.43
		c0-21.09,14.25-32.56,38.3-32.56h51.8c4.62,0,6.66,2.03,6.66,6.66v22.02c0,4.63-2.04,6.66-6.66,6.66h-43.11c-3.14,0-5,2.22-5,5.55
		c0,3.33,1.85,5.55,5,5.92l27.57,3.7c17.39,2.59,28.86,9.99,28.86,30.71v19.43c0,21.09-14.43,32.56-38.3,32.56H188.58z"/>
	<path class="st44" d="M312.17,591.44c-4.63,0-6.66-2.04-6.66-6.66V464.89c0-4.63,2.04-6.66,6.66-6.66h28.68
		c4.62,0,6.66,2.03,6.66,6.66v42.55h7.4l19.06-43.11c1.85-4.44,4.44-6.1,9.25-6.1h28.49c4.26,0,5.74,2.22,4.07,6.1l-18.87,43.11
		c13.88,0.74,22.76,10.36,22.76,25.16v52.17c0,4.62-2.04,6.66-6.66,6.66h-28.49c-4.63,0-6.66-2.04-6.66-6.66V548.7
		c0-4.07-2.04-6.29-5.92-6.29H347.5v42.37c0,4.62-2.04,6.66-6.66,6.66H312.17z"/>
	<path class="st44" d="M477.38,591.44c-4.81,0-6.66-2.04-6.66-6.66v-23.68l-28.31-37.93c-5.74-7.59-7.03-11.29-7.03-22.76v-35.52
		c0-4.63,2.04-6.66,6.66-6.66h28.49c4.63,0,6.66,2.03,6.66,6.66v30.34c0,2.59,0,5.18,1.67,7.77l8.51,13.32
		c1.29,2.22,2.41,3.15,4.44,3.15h1.85c2.04,0,3.15-0.92,4.44-3.15l8.51-13.32c1.67-2.59,1.67-5.18,1.67-7.77v-30.34
		c0-4.63,2.04-6.66,6.66-6.66h27.57c4.62,0,6.66,2.03,6.66,6.66v35.52c0,11.47-1.48,15.17-7.03,22.76l-28.12,38.11v23.5
		c0,4.62-2.04,6.66-6.66,6.66H477.38z"/>
	<path class="st44" d="M576.92,591.44c-4.63,0-6.66-2.04-6.66-6.66V464.89c0-4.63,2.04-6.66,6.66-6.66h82.52
		c4.62,0,6.66,2.03,6.66,6.66v22.02c0,4.63-2.04,6.66-6.66,6.66h-47.18v19.24h32.19c4.62,0,6.66,2.04,6.66,6.66v22.2
		c0,4.63-2.04,6.66-6.66,6.66h-32.19v36.45c0,4.62-2.04,6.66-6.66,6.66H576.92z"/>
	<path class="st44" d="M681.63,584.78v-22.02c0-4.62,2.04-6.66,6.66-6.66h18.32v-62.17h-18.32c-4.62,0-6.66-2.04-6.66-6.66v-22.39
		c0-4.63,2.04-6.66,6.66-6.66h78.82c4.63,0,6.66,2.03,6.66,6.66v22.39c0,4.62-2.04,6.66-6.66,6.66h-17.95v62.17h17.95
		c4.63,0,6.66,2.04,6.66,6.66v22.02c0,4.62-2.04,6.66-6.66,6.66h-78.82C683.67,591.44,681.63,589.4,681.63,584.78z"/>
	<path class="st44" d="M829.46,591.44c-4.62,0-6.66-2.04-6.66-6.66v-90.84h-27.2c-4.62,0-6.66-2.04-6.66-6.66v-22.39
		c0-4.63,2.04-6.66,6.66-6.66h97.69c4.63,0,6.66,2.03,6.66,6.66v22.39c0,4.62-2.04,6.66-6.66,6.66h-27.2v90.84
		c0,4.62-2.04,6.66-6.66,6.66H829.46z"/>
</g>
<g>
	<path class="st43" d="M182.38,583.07c-4.62,0-6.66-2.04-6.66-6.66v-21.65c0-4.62,2.04-6.66,6.66-6.66h49.77
		c3.15,0,4.81-2.41,4.81-5.37c0-4.25-1.67-5.92-4.81-6.29l-27.75-3.89c-17.39-2.59-28.68-9.99-28.68-30.71v-19.43
		c0-21.09,14.25-32.56,38.3-32.56h51.8c4.62,0,6.66,2.03,6.66,6.66v22.02c0,4.63-2.04,6.66-6.66,6.66h-43.11c-3.14,0-5,2.22-5,5.55
		c0,3.33,1.85,5.55,5,5.92l27.57,3.7c17.39,2.59,28.86,9.99,28.86,30.71v19.43c0,21.09-14.43,32.56-38.3,32.56H182.38z"/>
	<path class="st43" d="M305.96,583.07c-4.63,0-6.66-2.04-6.66-6.66V456.53c0-4.63,2.04-6.66,6.66-6.66h28.68
		c4.62,0,6.66,2.03,6.66,6.66v42.55h7.4l19.06-43.11c1.85-4.44,4.44-6.1,9.25-6.1h28.49c4.26,0,5.74,2.22,4.07,6.1l-18.87,43.11
		c13.88,0.74,22.76,10.36,22.76,25.16v52.17c0,4.62-2.04,6.66-6.66,6.66H378.3c-4.63,0-6.66-2.04-6.66-6.66v-36.08
		c0-4.07-2.04-6.29-5.92-6.29H341.3v42.37c0,4.62-2.04,6.66-6.66,6.66H305.96z"/>
	<path class="st43" d="M471.18,583.07c-4.81,0-6.66-2.04-6.66-6.66v-23.68l-28.31-37.93c-5.74-7.59-7.03-11.29-7.03-22.76v-35.52
		c0-4.63,2.04-6.66,6.66-6.66h28.49c4.63,0,6.66,2.03,6.66,6.66v30.34c0,2.59,0,5.18,1.67,7.77l8.51,13.32
		c1.29,2.22,2.41,3.15,4.44,3.15h1.85c2.04,0,3.15-0.92,4.44-3.15l8.51-13.32c1.67-2.59,1.67-5.18,1.67-7.77v-30.34
		c0-4.63,2.04-6.66,6.66-6.66h27.57c4.62,0,6.66,2.03,6.66,6.66v35.52c0,11.47-1.48,15.17-7.03,22.76l-28.12,38.11v23.5
		c0,4.62-2.04,6.66-6.66,6.66H471.18z"/>
	<path class="st43" d="M570.72,583.07c-4.63,0-6.66-2.04-6.66-6.66V456.53c0-4.63,2.04-6.66,6.66-6.66h82.52
		c4.62,0,6.66,2.03,6.66,6.66v22.02c0,4.63-2.04,6.66-6.66,6.66h-47.18v19.24h32.19c4.62,0,6.66,2.04,6.66,6.66v22.2
		c0,4.63-2.04,6.66-6.66,6.66h-32.19v36.45c0,4.62-2.04,6.66-6.66,6.66H570.72z"/>
	<path class="st43" d="M675.43,576.41V554.4c0-4.62,2.04-6.66,6.66-6.66h18.32v-62.17h-18.32c-4.62,0-6.66-2.04-6.66-6.66v-22.39
		c0-4.63,2.04-6.66,6.66-6.66h78.82c4.63,0,6.66,2.03,6.66,6.66v22.39c0,4.62-2.04,6.66-6.66,6.66h-17.95v62.17h17.95
		c4.63,0,6.66,2.04,6.66,6.66v22.02c0,4.62-2.04,6.66-6.66,6.66h-78.82C677.47,583.07,675.43,581.04,675.43,576.41z"/>
	<path class="st43" d="M823.26,583.07c-4.62,0-6.66-2.04-6.66-6.66v-90.84h-27.2c-4.62,0-6.66-2.04-6.66-6.66v-22.39
		c0-4.63,2.04-6.66,6.66-6.66h97.69c4.63,0,6.66,2.03,6.66,6.66v22.39c0,4.62-2.04,6.66-6.66,6.66h-27.2v90.84
		c0,4.62-2.04,6.66-6.66,6.66H823.26z"/>
</g>
<g>
	<path class="st43" d="M484.13,741.24c-67.92-13.85-123.88-60.58-149.69-125.01c-1.71-4.28,0.37-9.14,4.64-10.85
		c4.28-1.71,9.14,0.37,10.85,4.64c23.72,59.2,75.13,102.14,137.53,114.86c44.02,8.98,89.87,1.94,129.11-19.82
		c38.81-21.52,68.88-56.06,84.68-97.25c1.65-4.3,6.47-6.45,10.78-4.81c4.3,1.65,6.46,6.48,4.81,10.78
		c-17.2,44.85-49.93,82.45-92.17,105.88C581.96,743.35,532.05,751.02,484.13,741.24z"/>
	<path class="st43" d="M479.36,764.66c-2.26-0.46-3.72-2.67-3.26-4.92c0.46-2.26,2.67-3.72,4.92-3.26
		c52.33,10.67,106.71,2.05,153.1-24.29c45.95-26.08,81.05-67.68,98.83-117.12c0.78-2.17,3.17-3.29,5.34-2.51
		c2.17,0.78,3.29,3.17,2.51,5.34c-18.46,51.32-54.89,94.49-102.57,121.56C590.1,766.78,533.67,775.73,479.36,764.66z"/>
</g>
<g>
	<path class="st43" d="M360.5,437.46c-1.05-0.21-2.08-0.64-3.02-1.28c-3.81-2.59-4.8-7.79-2.21-11.6
		c22.5-33.08,53.98-58.74,91.03-74.18c37.97-15.83,79.43-19.84,119.89-11.58c49.77,10.15,93.81,38.2,124,78.99
		c2.74,3.71,1.96,8.93-1.74,11.68c-3.71,2.74-8.93,1.96-11.68-1.74c-27.73-37.47-68.19-63.25-113.91-72.57
		c-37.18-7.58-75.26-3.9-110.13,10.64c-34.05,14.2-62.98,37.77-83.65,68.16C367.12,436.84,363.7,438.11,360.5,437.46z"/>
	<path class="st43" d="M331.84,427.35c-0.46-0.09-0.91-0.27-1.33-0.52c-1.97-1.2-2.6-3.76-1.4-5.73
		c24.27-40,59.77-71.28,102.67-90.45c43.84-19.6,91.97-24.87,139.18-15.24c2.26,0.46,3.72,2.67,3.26,4.92
		c-0.46,2.26-2.67,3.72-4.92,3.26c-45.49-9.28-91.87-4.2-134.11,14.68c-41.35,18.48-75.56,48.62-98.94,87.16
		C335.3,426.97,333.52,427.69,331.84,427.35z"/>
</g>
</svg>
